# xmcd
#
# Track frame offsets:
#	150
#	11492
#	25064
#	35190
#	47684
#	62008
#	74064
#	87923
#	103074
#	115349
#	129761
#	145428
#	161906
#	174085
#	185434
#	196924
#	209886
#	225639
#	238236
#	251255
#	263912
#	277774
#	290594
#	306240
#
# Disc length: 4245
#
# Revision: 1
# Processed by: cddbd v1.5.1PL0 Copyright (c) Steve Scherf et al.
# Submitted via: VisiTrax 2.9.5.181 - For more info visit www.synapsa.com
# Normalized: r0:DSETVAR1
#
DISCID=64109318
DTITLE=Various Artist - Pounds Of Soul
DYEAR=2003
DGENRE=Blues, RnB
TTITLE0=Betty Bibbs - Pounds Of Soul
TTITLE1=Arthur and Mary - Is That You
TTITLE2=Jeb Stuart - I Just Love Your work
TTITLE3=Vernon Garrett - Keep On Forgiving You
TTITLE4=Sims Twins, The - Bring It On Home Where You Belong
TTITLE5=Tommy Youngblood - Tobacco Road
TTITLE6=Z Z Hill - When Something Is Wrong With My Baby
TTITLE7=Johnny Copeland - Dear Mother
TTITLE8=Freeman King - Georgia Woman
TTITLE9=Jackie Day - Without A Love
TTITLE10=Betty Bibbs - Everyone But Me
TTITLE11=Tommy Youngblood - For The Love Of A Woman
TTITLE12=Johnny Adams - Your Kind Of Love
TTITLE13=Vernon Garrett - Things Are Lookin' Better
TTITLE14=Brenda George - What You See Is What You're Gonna Get
TTITLE15=Jimmy Bee - Funky Way
TTITLE16=Vernon Garrett - Satisfied Woman Satisfied Man
TTITLE17=Tommy Youngblood - Who Will You Favor
TTITLE18=Johnny Durain - Brighter Days
TTITLE19=Joe Haywood - I Wanna Love You
TTITLE20=Millie Foster - Fill My Needs
TTITLE21=Betty Bibbs - First Come First Served
TTITLE22=Johnny Copeland - Old Man Blues
TTITLE23=Jimmy Robins - It's Real Pt. 2
EXTD=
EXTT0=
EXTT1=
EXTT2=
EXTT3=
EXTT4=
EXTT5=
EXTT6=
EXTT7=
EXTT8=
EXTT9=
EXTT10=
EXTT11=
EXTT12=
EXTT13=
EXTT14=
EXTT15=
EXTT16=
EXTT17=
EXTT18=
EXTT19=
EXTT20=
EXTT21=
EXTT22=
EXTT23=
PLAYORDER=
